# xmcd
#
# Track frame offsets:
# 150
# 17960
# 33147
# 47417
# 63120
# 79600
# 94155
# 110235
# 122307
# 133922
# 148095
# 160827
# 172677
#
# Disc length: 2496 seconds
#
#
# Revision: 0
# Processed by: cddbd v1.5.1PL2 Copyright (c) Steve Scherf et al.
# Submitted via: FreeRIP 2.945 
#
DISCID=a009be0d
DTITLE=Cezar e Paulinho - 
DYEAR=1900
DGENRE=
TTITLE0=Boboca e bobão
TTITLE1=Morto de saudade sua
TTITLE2=Terreninho
TTITLE3=Enfeitiçado
TTITLE4=Duas vezes você
TTITLE5=Amanhã ou depois
TTITLE6=Nunca mais
TTITLE7=Segundo amor
TTITLE8=Doce de paixão
TTITLE9=Meia volta
TTITLE10=A saudade fez contato
TTITLE11=Cowboy moderno
TTITLE12=Descaminhos
EXTD=
EXTT0=
EXTT1=
EXTT2=
EXTT3=
EXTT4=
EXTT5=
EXTT6=
EXTT7=
EXTT8=
EXTT9=
EXTT10=
EXTT11=
EXTT12=
PLAYORDER=
